{"glyphs":{"A":{"ha":1429,"x_min":0,"x_max":0,"o":""},"B":{"ha":833,"x_min":0,"x_max":0,"o":""},"C":{"ha":833,"x_min":0,"x_max":0,"o":""},"D":{"ha":833,"x_min":0,"x_max":0,"o":""},"E":{"ha":833,"x_min":0,"x_max":0,"o":""},"F":{"ha":833,"x_min":0,"x_max":0,"o":""},"G":{"ha":833,"x_min":0,"x_max":0,"o":""},"H":{"ha":1022,"x_min":0,"x_max":0,"o":""},"I":{"ha":833,"x_min":0,"x_max":0,"o":""},"J":{"ha":833,"x_min":0,"x_max":0,"o":""},"K":{"ha":833,"x_min":0,"x_max":0,"o":""},"L":{"ha":833,"x_min":0,"x_max":0,"o":""},"M":{"ha":833,"x_min":0,"x_max":0,"o":""},"N":{"ha":833,"x_min":0,"x_max":0,"o":""},"O":{"ha":833,"x_min":0,"x_max":0,"o":""},"P":{"ha":833,"x_min":0,"x_max":0,"o":""},"Q":{"ha":833,"x_min":0,"x_max":0,"o":""},"R":{"ha":1753,"x_min":0,"x_max":0,"o":""},"S":{"ha":833,"x_min":0,"x_max":0,"o":""},"T":{"ha":717,"x_min":0,"x_max":0,"o":""},"U":{"ha":833,"x_min":0,"x_max":0,"o":""},"V":{"ha":833,"x_min":0,"x_max":0,"o":""},"W":{"ha":833,"x_min":0,"x_max":0,"o":""},"X":{"ha":833,"x_min":0,"x_max":0,"o":""},"Y":{"ha":833,"x_min":0,"x_max":0,"o":""},"Z":{"ha":833,"x_min":0,"x_max":0,"o":""},"a":{"ha":1275,"x_min":0,"x_max":0,"o":"m 1182 972 l 335 972 l 294 888 l 92 749 l 197 976 l 260 1111 l 1385 1111 m 961 539 b 950 557 958 544 954 551 b 1081 904 865 678 890 782 b 1086 619 1040 842 996 769 b 815 139 1231 399 961 208 l 986 139 l 921 0 l 628 0 l 693 139 l 708 139 b 981 478 818 139 997 324 l 867 400 l 397 400 l 354 307 l 260 242 b 550 149 360 178 419 69 b 351 -6 499 38 426 -6 b 188 110 285 -6 249 63 b -160 139 90 188 -83 239 l 100 139 l 35 0 l -258 0 l -193 139 b 199 271 -139 256 61 315 l 297 482 l 178 400 l -71 400 l 132 539 l 324 539 l 429 765 l 633 904 l 424 457 l 544 539 l 961 539 "},"b":{"ha":833,"x_min":0,"x_max":0,"o":""},"c":{"ha":833,"x_min":0,"x_max":0,"o":""},"d":{"ha":833,"x_min":0,"x_max":0,"o":""},"e":{"ha":833,"x_min":0,"x_max":0,"o":""},"f":{"ha":833,"x_min":0,"x_max":0,"o":""},"g":{"ha":833,"x_min":0,"x_max":0,"o":""},"h":{"ha":1836,"x_min":0,"x_max":0,"o":"m 482 749 l 588 976 l 651 1111 l 1328 1111 l 1124 972 l 725 972 l 685 888 m 1796 972 l 1497 972 l 1457 888 l 1254 749 l 1360 976 l 1424 1111 l 2000 1111 m 1246 139 l 1496 139 l 1431 0 l 964 0 l 1029 139 l 1200 139 l 1360 482 l 1240 400 l 797 400 l 610 0 l 471 0 l 492 46 b -50 449 538 244 -139 256 l -8 539 l 722 539 l 832 774 l 1036 913 l 824 457 l 943 539 l 1386 539 l 1492 765 l 1696 904 l 1382 232 m 576 400 l 151 400 b 535 138 110 303 472 244 l 696 482 "},"i":{"ha":788,"x_min":0,"x_max":0,"o":"m 686 972 l 388 972 l 347 888 l 144 749 l 250 976 l 314 1111 l 890 1111 m 647 539 l 444 400 l 351 400 l 308 307 l 104 168 l 213 400 l -75 400 l 128 539 l 276 539 l 382 765 l 586 904 l 417 539 m 381 139 l 315 0 l -151 0 l -86 139 "},"j":{"ha":833,"x_min":0,"x_max":0,"o":""},"k":{"ha":833,"x_min":0,"x_max":0,"o":""},"l":{"ha":833,"x_min":0,"x_max":0,"o":""},"m":{"ha":833,"x_min":0,"x_max":0,"o":""},"n":{"ha":833,"x_min":0,"x_max":0,"o":""},"o":{"ha":833,"x_min":0,"x_max":0,"o":""},"p":{"ha":833,"x_min":0,"x_max":0,"o":""},"q":{"ha":833,"x_min":0,"x_max":0,"o":""},"r":{"ha":1488,"x_min":0,"x_max":0,"o":"m 75 749 l 181 976 l 243 1111 l 1399 1111 l 1474 972 b 688 636 1394 972 1040 636 b 1168 972 904 676 1072 793 l 318 972 l 278 888 m 1431 511 l 1268 400 l 885 139 l 1106 139 l 1040 0 l 747 0 l 813 139 l 1196 400 l 408 400 b 314 272 389 353 354 310 b 361 253 331 267 347 261 b 669 149 472 192 531 65 b 471 -6 618 38 546 -6 b 307 110 404 -6 368 63 b 185 175 274 136 231 160 b 117 139 161 161 138 149 l 179 139 l 114 0 l -139 0 l -74 139 b 219 286 -32 229 99 286 b 251 557 279 371 308 476 b 382 904 167 678 192 782 b 388 619 342 842 293 767 b 425 454 425 561 435 506 l 550 539 l 1471 539 m 10 139 b 129 190 46 139 88 158 b -40 139 63 201 -1 190 l 10 139 "},"s":{"ha":833,"x_min":0,"x_max":0,"o":""},"t":{"ha":1221,"x_min":0,"x_max":0,"o":"m 1182 972 l 335 972 l 296 888 l 92 749 l 197 976 l 261 1111 l 1386 1111 m 1122 539 l 918 400 b 103 -7 514 125 319 -7 b -124 289 -29 -7 -218 86 b 474 765 -47 453 196 590 l 443 701 b 18 304 135 497 76 431 b 179 133 -54 151 100 135 l 474 765 l 676 904 l 468 457 l 589 539 m 226 133 b 838 400 367 135 528 190 l 442 400 l 360 225 l 226 133 "},"u":{"ha":833,"x_min":0,"x_max":0,"o":""},"v":{"ha":833,"x_min":0,"x_max":0,"o":""},"w":{"ha":833,"x_min":0,"x_max":0,"o":""},"x":{"ha":833,"x_min":0,"x_max":0,"o":""},"y":{"ha":833,"x_min":0,"x_max":0,"o":""},"z":{"ha":833,"x_min":0,"x_max":0,"o":""}," ":{"ha":833,"x_min":0,"x_max":0,"o":""}}}
